<?xml version="1.0" encoding="utf-8"?>
<!-- Generator: Adobe Illustrator 27.5.0, SVG Export Plug-In . SVG Version: 6.00 Build 0)  -->
<svg version="1.1" xmlns="http://www.w3.org/2000/svg" xmlns:xlink="http://www.w3.org/1999/xlink" x="0px" y="0px"
	 viewBox="0 0 500 500" style="enable-background:new 0 0 500 500;" xml:space="preserve">
<g id="Background">
	
		<radialGradient id="XMLID_00000149377194241195507740000009360071330312095369_" cx="250" cy="251.256" r="338.5909" gradientUnits="userSpaceOnUse">
		<stop  offset="0.7086" style="stop-color:#EDEDED"/>
		<stop  offset="0.7253" style="stop-color:#EBEBEB"/>
		<stop  offset="0.8666" style="stop-color:#DEDEDE"/>
		<stop  offset="1" style="stop-color:#DADADA"/>
	</radialGradient>
	<rect id="XMLID_136_" style="fill:url(#XMLID_00000149377194241195507740000009360071330312095369_);" width="500" height="500"/>
</g>
<g id="Elements">
	<g id="XMLID_376_">
		<g id="XMLID_315_">
			<path id="XMLID_321_" style="fill:#0A000F;" d="M185.967,230.23h-57.231c-21.909,0-39.669-17.76-39.669-39.669V133.33
				c0-21.909,17.76-39.669,39.669-39.669h57.231c21.909,0,39.669,17.76,39.669,39.669v57.231
				C225.636,212.47,207.876,230.23,185.967,230.23z"/>
			<g id="XMLID_22_">
				<path id="XMLID_318_" style="fill:#FFFFFF;" d="M172.283,200.46H142.42c-13.004,0-23.583-10.579-23.583-23.583v-29.863
					c0-13.004,10.579-23.583,23.583-23.583h29.863c13.004,0,23.583,10.579,23.583,23.583v29.863
					C195.866,189.88,185.287,200.46,172.283,200.46z M142.42,129.199c-9.823,0-17.815,7.992-17.815,17.815v29.863
					c0,9.823,7.992,17.815,17.815,17.815h29.863c9.824,0,17.816-7.992,17.816-17.815v-29.863c0-9.823-7.992-17.815-17.816-17.815
					H142.42z"/>
				<path id="XMLID_314_" style="fill:#FFFFFF;" d="M157.351,181.43c-10.744,0-19.484-8.741-19.484-19.485
					c0-10.744,8.74-19.485,19.484-19.485s19.485,8.741,19.485,19.485C176.836,172.689,168.095,181.43,157.351,181.43z
					 M157.351,148.367c-7.487,0-13.578,6.091-13.578,13.579c0,7.487,6.091,13.578,13.578,13.578c7.487,0,13.579-6.091,13.579-13.578
					C170.93,154.458,164.839,148.367,157.351,148.367z"/>
				<path id="XMLID_313_" style="fill:#FFFFFF;" d="M184.029,140.341c0,2.802-2.271,5.073-5.073,5.073
					c-2.802,0-5.073-2.271-5.073-5.073c0-2.802,2.271-5.073,5.073-5.073C181.758,135.268,184.029,137.539,184.029,140.341z"/>
			</g>
		</g>
		
			<radialGradient id="XMLID_00000124160372429997584020000004196593829494492095_" cx="74.1447" cy="457.1636" r="284.7152" gradientUnits="userSpaceOnUse">
			<stop  offset="0" style="stop-color:#F9ED41"/>
			<stop  offset="0.2412" style="stop-color:#FF833D"/>
			<stop  offset="0.401" style="stop-color:#EE5568"/>
			<stop  offset="0.4888" style="stop-color:#E7407B"/>
			<stop  offset="1" style="stop-color:#0028FF"/>
		</radialGradient>
		<path id="XMLID_348_" style="fill:url(#XMLID_00000124160372429997584020000004196593829494492095_);" d="M185.967,409.297
			h-57.231c-21.909,0-39.669-17.76-39.669-39.669v-57.231c0-21.909,17.76-39.669,39.669-39.669h57.231
			c21.909,0,39.669,17.76,39.669,39.669v57.231C225.636,391.537,207.876,409.297,185.967,409.297z"/>
		<g id="XMLID_340_">
			<path id="XMLID_345_" style="fill:#FFFFFF;" d="M172.283,379.527H142.42c-13.004,0-23.583-10.579-23.583-23.583v-29.862
				c0-13.004,10.579-23.583,23.583-23.583h29.863c13.004,0,23.583,10.579,23.583,23.583v29.862
				C195.866,368.948,185.287,379.527,172.283,379.527z M142.42,308.267c-9.823,0-17.815,7.992-17.815,17.815v29.862
				c0,9.823,7.992,17.815,17.815,17.815h29.863c9.824,0,17.816-7.992,17.816-17.815v-29.862c0-9.823-7.992-17.815-17.816-17.815
				H142.42z"/>
			<path id="XMLID_342_" style="fill:#FFFFFF;" d="M157.351,360.498c-10.744,0-19.484-8.741-19.484-19.485
				c0-10.744,8.74-19.485,19.484-19.485c10.744,0,19.485,8.741,19.485,19.485C176.836,351.757,168.095,360.498,157.351,360.498z
				 M157.351,327.434c-7.487,0-13.578,6.091-13.578,13.579c0,7.487,6.091,13.578,13.578,13.578c7.487,0,13.579-6.091,13.579-13.578
				C170.93,333.526,164.839,327.434,157.351,327.434z"/>
			<path id="XMLID_341_" style="fill:#FFFFFF;" d="M184.029,319.408c0,2.802-2.271,5.073-5.073,5.073
				c-2.802,0-5.073-2.271-5.073-5.073c0-2.802,2.271-5.073,5.073-5.073C181.758,314.335,184.029,316.606,184.029,319.408z"/>
		</g>
		<g id="XMLID_375_">
			<g id="XMLID_323_">
				<path id="XMLID_328_" style="fill:#0A000F;" d="M354.621,200.46h-29.862c-13.004,0-23.583-10.579-23.583-23.583v-29.863
					c0-13.004,10.579-23.583,23.583-23.583h29.862c13.004,0,23.583,10.579,23.583,23.583v29.863
					C378.205,189.88,367.626,200.46,354.621,200.46z M324.759,129.199c-9.823,0-17.815,7.992-17.815,17.815v29.863
					c0,9.823,7.992,17.815,17.815,17.815h29.862c9.824,0,17.816-7.992,17.816-17.815v-29.863c0-9.823-7.992-17.815-17.816-17.815
					H324.759z"/>
				<path id="XMLID_325_" style="fill:#0A000F;" d="M339.69,181.43c-10.744,0-19.484-8.741-19.484-19.485
					c0-10.744,8.74-19.485,19.484-19.485c10.744,0,19.485,8.741,19.485,19.485C359.175,172.689,350.434,181.43,339.69,181.43z
					 M339.69,148.367c-7.487,0-13.578,6.091-13.578,13.579c0,7.487,6.091,13.578,13.578,13.578c7.487,0,13.578-6.091,13.578-13.578
					C353.268,154.458,347.177,148.367,339.69,148.367z"/>
				<path id="XMLID_324_" style="fill:#0A000F;" d="M366.368,140.341c0,2.802-2.271,5.073-5.073,5.073
					c-2.802,0-5.073-2.271-5.073-5.073c0-2.802,2.271-5.073,5.073-5.073C364.097,135.268,366.368,137.539,366.368,140.341z"/>
			</g>
			<path id="XMLID_378_" style="fill:#0A000F;" d="M368.306,233.188h-57.23c-23.505,0-42.628-19.122-42.628-42.627v-57.23
				c0-23.505,19.123-42.628,42.628-42.628h57.23c23.505,0,42.627,19.123,42.627,42.628v57.23
				C410.933,214.066,391.81,233.188,368.306,233.188z M311.075,96.619c-20.242,0-36.711,16.469-36.711,36.711v57.23
				c0,20.243,16.469,36.711,36.711,36.711h57.23c20.242,0,36.711-16.468,36.711-36.711v-57.23c0-20.243-16.468-36.711-36.711-36.711
				H311.075z"/>
		</g>
		<g id="XMLID_374_">
			<path id="XMLID_331_" style="fill:#FFFFFF;" d="M368.306,409.297h-57.231c-21.909,0-39.669-17.76-39.669-39.669v-57.231
				c0-21.909,17.76-39.669,39.669-39.669h57.231c21.909,0,39.669,17.76,39.669,39.669v57.231
				C407.975,391.537,390.214,409.297,368.306,409.297z"/>
			<g id="XMLID_332_">
				
					<radialGradient id="XMLID_00000016791000123756194240000016933399041539907720_" cx="294.2854" cy="382.9242" r="142.0852" gradientUnits="userSpaceOnUse">
					<stop  offset="0" style="stop-color:#F9ED41"/>
					<stop  offset="0.2412" style="stop-color:#FF833D"/>
					<stop  offset="0.401" style="stop-color:#EE5568"/>
					<stop  offset="0.4888" style="stop-color:#E7407B"/>
					<stop  offset="1" style="stop-color:#0028FF"/>
				</radialGradient>
				<path id="XMLID_337_" style="fill:url(#XMLID_00000016791000123756194240000016933399041539907720_);" d="M354.621,379.527
					h-29.862c-13.004,0-23.583-10.579-23.583-23.583v-29.862c0-13.004,10.579-23.583,23.583-23.583h29.862
					c13.004,0,23.583,10.579,23.583,23.583v29.862C378.205,368.948,367.626,379.527,354.621,379.527z M324.759,308.267
					c-9.823,0-17.815,7.992-17.815,17.815v29.862c0,9.823,7.992,17.815,17.815,17.815h29.862c9.824,0,17.816-7.992,17.816-17.815
					v-29.862c0-9.823-7.992-17.815-17.816-17.815H324.759z"/>
				
					<radialGradient id="XMLID_00000170267949555410816660000014737678127047067547_" cx="294.2855" cy="382.924" r="142.0851" gradientUnits="userSpaceOnUse">
					<stop  offset="0" style="stop-color:#F9ED41"/>
					<stop  offset="0.2412" style="stop-color:#FF833D"/>
					<stop  offset="0.401" style="stop-color:#EE5568"/>
					<stop  offset="0.4888" style="stop-color:#E7407B"/>
					<stop  offset="1" style="stop-color:#0028FF"/>
				</radialGradient>
				<path id="XMLID_334_" style="fill:url(#XMLID_00000170267949555410816660000014737678127047067547_);" d="M339.69,360.498
					c-10.744,0-19.484-8.741-19.484-19.485c0-10.744,8.74-19.485,19.484-19.485c10.744,0,19.485,8.741,19.485,19.485
					C359.175,351.757,350.434,360.498,339.69,360.498z M339.69,327.434c-7.487,0-13.578,6.091-13.578,13.579
					c0,7.487,6.091,13.578,13.578,13.578c7.487,0,13.578-6.091,13.578-13.578C353.268,333.526,347.177,327.434,339.69,327.434z"/>
				
					<radialGradient id="XMLID_00000165192565469960220350000006929767644995233950_" cx="294.2857" cy="382.9239" r="142.0848" gradientUnits="userSpaceOnUse">
					<stop  offset="0" style="stop-color:#F9ED41"/>
					<stop  offset="0.2412" style="stop-color:#FF833D"/>
					<stop  offset="0.401" style="stop-color:#EE5568"/>
					<stop  offset="0.4888" style="stop-color:#E7407B"/>
					<stop  offset="1" style="stop-color:#0028FF"/>
				</radialGradient>
				<path id="XMLID_333_" style="fill:url(#XMLID_00000165192565469960220350000006929767644995233950_);" d="M366.368,319.408
					c0,2.802-2.271,5.073-5.073,5.073c-2.802,0-5.073-2.271-5.073-5.073c0-2.802,2.271-5.073,5.073-5.073
					C364.097,314.335,366.368,316.606,366.368,319.408z"/>
			</g>
		</g>
	</g>
</g>
</svg>
