<svg width="79" height="83" viewBox="0 0 79 83" fill="none" xmlns="http://www.w3.org/2000/svg">
<rect width="79" height="83" fill="#1E1E1E"/>
<path d="M-1037 -25H22259V-27H-1037V-25ZM22260 -24V5405.49H22262V-24H22260ZM22259 5406.49H-1037V5408.49H22259V5406.49ZM-1038 5405.49V-23.9998H-1040V5405.49H-1038ZM-1037 5406.49C-1037.55 5406.49 -1038 5406.04 -1038 5405.49H-1040C-1040 5407.15 -1038.66 5408.49 -1037 5408.49V5406.49ZM22260 5405.49C22260 5406.04 22259.6 5406.49 22259 5406.49V5408.49C22260.7 5408.49 22262 5407.15 22262 5405.49H22260ZM22259 -25C22259.6 -25 22260 -24.5524 22260 -24H22262C22262 -25.6568 22260.7 -27 22259 -27V-25ZM-1037 -27C-1038.66 -27 -1040 -25.6566 -1040 -23.9998H-1038C-1038 -24.5522 -1037.55 -25 -1037 -25V-27Z" fill="white" fill-opacity="0.1"/>
<g clip-path="url(#clip0_0_1)">
<rect width="1920" height="1587" transform="translate(-1019 -6)" fill="white"/>
<g clip-path="url(#clip1_0_1)">
<mask id="mask0_0_1" style="mask-type:luminance" maskUnits="userSpaceOnUse" x="-1019" y="-6" width="1920" height="1587">
<mask id="mask1_0_1" style="mask-type:luminance" maskUnits="userSpaceOnUse" x="-1019" y="-6" width="1920" height="1587">
<path d="M-1019 -6H901V1581H-1019V-6Z" fill="white"/>
</mask>
<g mask="url(#mask1_0_1)">
<path d="M901 1582H-1019V-6H901V1582Z" fill="white"/>
</g>
</mask>
<g mask="url(#mask0_0_1)">
<path d="M250.574 1087.64V564.695H425.112L523.578 799.068L250.574 1087.64ZM-269.033 1244.15C-474.326 1195.12 -523.351 1158.36 -523.351 1075.63V1072.56C-523.351 1002.09 -458.999 945.398 -348.701 945.398C-250.651 945.398 -154.127 983.705 -57.6047 1055.71L43.5012 913.228C-21.4788 861.063 -91.9318 823.116 -171.444 801.012C-154.704 771.415 -143.912 737.794 -139.756 700.28L-81.9897 564.695H62.1372V1464.33C25.2392 1349.69 -86.7308 1288.5 -269.033 1244.15ZM-845.624 497.511H-546.877C-398.267 497.511 -326.263 551.132 -326.263 641.519V644.588C-326.263 741.098 -404.397 791.663 -533.09 791.663H-845.624V497.511ZM170.795 -31.2716L356.17 397.696H-13.0468L170.795 -31.2716ZM546.265 1009.52L725.995 823.609H733.052L730.855 818.582L992.089 548.368H760.75L659.542 655.348L261.187 -256.475H86.5312L-228.176 463.881C-261.931 437.261 -303.659 417.078 -350.776 400.988C-271.108 359.627 -197.57 290.678 -197.57 161.985V158.931C-197.57 86.9145 -222.083 28.6975 -269.574 -18.7885C-330.859 -80.0725 -427.376 -113.784 -549.939 -113.784H-1031V53.2155H-574.451C-453.422 53.2155 -386.014 105.309 -386.014 189.56V192.629C-386.014 290.679 -467.209 338.176 -588.238 338.176H-1031V958.65H-682.307C-701.409 997.573 -711.789 1041.58 -711.789 1089.42V1092.47C-711.789 1290.12 -583.096 1357.52 -354.824 1412.67C-155.655 1458.64 -112.766 1500 -112.766 1576.6V1579.67C-112.766 1660.87 -186.298 1714.49 -302.731 1714.49C-436.02 1714.49 -538.666 1663.94 -641.313 1575.08L-754.691 1709.89C-625.998 1824.8 -471.258 1881.47 -307.327 1881.47C-105.37 1881.47 42.3823 1785.38 70.7343 1620.8H250.574V1309.79L417.573 1138.21L783.728 1620.8H1012L546.265 1009.52Z" fill="white"/>
</g>
<mask id="mask2_0_1" style="mask-type:luminance" maskUnits="userSpaceOnUse" x="-1019" y="-6" width="1920" height="1587">
<mask id="mask3_0_1" style="mask-type:luminance" maskUnits="userSpaceOnUse" x="-1019" y="-6" width="1920" height="1587">
<path d="M-1019 -6H901V1581H-1019V-6Z" fill="white"/>
</mask>
<g mask="url(#mask3_0_1)">
<path d="M901 1582H-1019V-6H901V1582Z" fill="white"/>
</g>
</mask>
<g mask="url(#mask2_0_1)">
<path d="M250.574 1087.64V564.695H425.112L523.578 799.068L250.574 1087.64ZM-269.033 1244.15C-474.326 1195.12 -523.351 1158.36 -523.351 1075.63V1072.56C-523.351 1002.09 -458.999 945.398 -348.701 945.398C-250.651 945.398 -154.127 983.705 -57.6047 1055.71L43.5012 913.228C-21.4788 861.063 -91.9318 823.116 -171.444 801.012C-154.704 771.415 -143.912 737.794 -139.756 700.28L-81.9897 564.695H62.1372V1464.33C25.2392 1349.69 -86.7308 1288.5 -269.033 1244.15ZM-845.624 497.511H-546.877C-398.267 497.511 -326.263 551.132 -326.263 641.519V644.588C-326.263 741.098 -404.397 791.663 -533.09 791.663H-845.624V497.511ZM170.795 -31.2716L356.17 397.696H-13.0468L170.795 -31.2716ZM546.265 1009.52L725.995 823.609H733.052L730.855 818.582L992.089 548.368H760.75L659.542 655.348L261.187 -256.475H86.5312L-228.176 463.881C-261.931 437.261 -303.659 417.078 -350.776 400.988C-271.108 359.627 -197.57 290.678 -197.57 161.985V158.931C-197.57 86.9145 -222.083 28.6975 -269.574 -18.7885C-330.859 -80.0725 -427.376 -113.784 -549.939 -113.784H-1031V53.2155H-574.451C-453.422 53.2155 -386.014 105.309 -386.014 189.56V192.629C-386.014 290.679 -467.209 338.176 -588.238 338.176H-1031V958.65H-682.307C-701.409 997.573 -711.789 1041.58 -711.789 1089.42V1092.47C-711.789 1290.12 -583.096 1357.52 -354.824 1412.67C-155.655 1458.64 -112.766 1500 -112.766 1576.6V1579.67C-112.766 1660.87 -186.298 1714.49 -302.731 1714.49C-436.02 1714.49 -538.666 1663.94 -641.313 1575.08L-754.691 1709.89C-625.998 1824.8 -471.258 1881.47 -307.327 1881.47C-105.37 1881.47 42.3823 1785.38 70.7343 1620.8H250.574V1309.79L417.573 1138.21L783.728 1620.8H1012L546.265 1009.52Z" fill="#DDDDDD"/>
</g>
<path d="M-1019 1581H901V1074H-1019V1581ZM-1019 1074H901V-6H-1019V1074Z" fill="white"/>
<path d="M-8.07599 89H86.924V-6H-8.07599V89Z" fill="#FFD900"/>
<mask id="mask4_0_1" style="mask-type:luminance" maskUnits="userSpaceOnUse" x="-1019" y="-6" width="1920" height="1587">
<path d="M-1019 -6H901V1581H-1019V-6Z" fill="white"/>
</mask>
<g mask="url(#mask4_0_1)">
<path d="M49.3096 51.9585V32.0805H55.9446L59.6866 40.9895L49.3096 51.9585ZM29.5586 57.9075C21.7546 56.0435 19.8916 54.6465 19.8916 51.5015V51.3855C19.8916 48.7065 22.3376 46.5515 26.5306 46.5515C30.2576 46.5515 33.9266 48.0075 37.5956 50.7445L41.4386 45.3285C38.9686 43.3465 36.2896 41.9035 33.2686 41.0635C33.9046 39.9385 34.3146 38.6605 34.4726 37.2345L36.6676 32.0805H42.1466V66.2765C40.7446 61.9195 36.4886 59.5935 29.5586 57.9075ZM7.64161 29.5265H18.9976C24.6466 29.5265 27.3826 31.5645 27.3826 35.0005V35.1175C27.3826 38.7865 24.4136 40.7085 19.5216 40.7085H7.64161V29.5265ZM46.2776 9.42755L53.3236 25.7325H39.2886L46.2776 9.42755ZM60.5486 48.9885L67.3806 41.9225H67.6496L67.5656 41.7305L77.4956 31.4595H68.7026L64.8556 35.5265L49.7126 0.866547H43.0746L31.1116 28.2485C29.8286 27.2365 28.2426 26.4695 26.4516 25.8575C29.4796 24.2855 32.2756 21.6655 32.2756 16.7725V16.6565C32.2756 13.9195 31.3436 11.7066 29.5386 9.90155C27.2086 7.57255 23.5396 6.29054 18.8806 6.29054H0.594604V12.6385H17.9496C22.5496 12.6385 25.1126 14.6185 25.1126 17.8215V17.9375C25.1126 21.6655 22.0256 23.4705 17.4246 23.4705H0.594604V47.0555H13.8496C13.1226 48.5345 12.7286 50.2075 12.7286 52.0255V52.1425C12.7286 59.6545 17.6216 62.2175 26.2976 64.3135C33.8686 66.0605 35.4976 67.6325 35.4976 70.5445V70.6615C35.4976 73.7475 32.7036 75.7855 28.2776 75.7855C23.2106 75.7855 19.3096 73.8645 15.4086 70.4865L11.0976 75.6115C15.9906 79.9795 21.8726 82.1335 28.1026 82.1335C35.7796 82.1335 41.3956 78.4805 42.4736 72.2245H49.3096V60.4025L55.6576 53.8805L69.5756 72.2245H78.2516L60.5486 48.9885Z" fill="black"/>
</g>
</g>
</g>
<defs>
<clipPath id="clip0_0_1">
<rect width="1920" height="1587" fill="white" transform="translate(-1019 -6)"/>
</clipPath>
<clipPath id="clip1_0_1">
<rect width="1920" height="1587" fill="white" transform="translate(-1019 -6)"/>
</clipPath>
</defs>
</svg>
